<svg width="22" height="22" viewBox="0 0 22 22" fill="none" xmlns="http://www.w3.org/2000/svg">
<path d="M12.6302 5.90791C12.8669 5.68253 13.182 5.55793 13.5088 5.5604C13.8357 5.56287 14.1488 5.69223 14.3821 5.92116C14.6154 6.1501 14.7506 6.46072 14.7593 6.78747C14.7679 7.11422 14.6493 7.43155 14.4284 7.67249L7.72297 16.0585C7.60767 16.1827 7.46851 16.2823 7.31381 16.3515C7.15911 16.4207 6.99205 16.4579 6.82262 16.4611C6.65318 16.4642 6.48486 16.4332 6.3277 16.3698C6.17055 16.3064 6.02779 16.2119 5.90797 16.0921L1.46122 11.6453C1.33739 11.5299 1.23806 11.3908 1.16917 11.2362C1.10028 11.0816 1.06324 10.9147 1.06025 10.7454C1.05727 10.5762 1.0884 10.4081 1.15179 10.2511C1.21518 10.0942 1.30954 9.95163 1.42923 9.83194C1.54891 9.71225 1.69148 9.6179 1.84843 9.55451C2.00537 9.49112 2.17347 9.45998 2.34271 9.46297C2.51195 9.46596 2.67885 9.503 2.83346 9.57189C2.98807 9.64078 3.12722 9.7401 3.24261 9.86394L6.76169 13.3813L12.5966 5.94488C12.607 5.93191 12.6183 5.91956 12.6302 5.90791ZM11.0841 14.546L12.6302 16.0921C12.75 16.2116 12.8926 16.3059 13.0496 16.3691C13.2066 16.4324 13.3748 16.4634 13.544 16.4602C13.7132 16.4571 13.8801 16.4199 14.0346 16.3509C14.1892 16.2818 14.3282 16.1824 14.4435 16.0585L21.1523 7.67249C21.2728 7.55351 21.3681 7.41146 21.4325 7.25483C21.4969 7.0982 21.5291 6.9302 21.5271 6.76086C21.5251 6.59152 21.489 6.42431 21.421 6.26922C21.353 6.11414 21.2544 5.97435 21.1311 5.85821C21.0079 5.74207 20.8625 5.65197 20.7036 5.59327C20.5448 5.53457 20.3757 5.50849 20.2066 5.51658C20.0374 5.52466 19.8716 5.56676 19.7191 5.64035C19.5666 5.71394 19.4304 5.81751 19.3188 5.94488L13.4822 13.3813L12.6672 12.5646L11.0824 14.546H11.0841Z" fill="#212121"/>
</svg>
