<svg width="26" height="26" viewBox="0 0 26 26" fill="none" xmlns="http://www.w3.org/2000/svg">
<path fill-rule="evenodd" clip-rule="evenodd" d="M13 24.375C12.7845 24.375 12.5779 24.2894 12.4255 24.137C12.2731 23.9847 12.1875 23.778 12.1875 23.5625L12.1875 4.39887L7.07526 9.51275C6.9227 9.66532 6.71577 9.75103 6.50001 9.75103C6.28425 9.75103 6.07733 9.66532 5.92476 9.51275C5.7722 9.36018 5.68649 9.15326 5.68649 8.9375C5.68649 8.72174 5.7722 8.51482 5.92476 8.36225L12.4248 1.86225C12.5002 1.78658 12.5899 1.72655 12.6886 1.68559C12.7873 1.64463 12.8931 1.62355 13 1.62355C13.1069 1.62355 13.2127 1.64463 13.3114 1.68559C13.4101 1.72655 13.4998 1.78658 13.5753 1.86225L20.0753 8.36225C20.2278 8.51481 20.3135 8.72174 20.3135 8.9375C20.3135 9.15326 20.2278 9.36018 20.0753 9.51275C19.9227 9.66531 19.7158 9.75103 19.5 9.75103C19.2842 9.75103 19.0773 9.66531 18.9248 9.51275L13.8125 4.39887L13.8125 23.5625C13.8125 23.778 13.7269 23.9847 13.5745 24.137C13.4222 24.2894 13.2155 24.375 13 24.375Z" fill="#E5E5E5"/>
</svg>
