<svg width="32" height="32" viewBox="0 0 32 32" fill="none" xmlns="http://www.w3.org/2000/svg">
<g clip-path="url(#clip0_2_4120)">
<path d="M15.9983 27.3042C14.7206 27.3042 13.6814 28.3579 13.6814 29.6521C13.6814 30.9463 14.7206 31.9999 15.9983 31.9999C17.2768 31.9999 18.3171 30.9463 18.3171 29.6521C18.3171 28.3579 17.2768 27.3042 15.9983 27.3042Z" fill="white"/>
<path d="M13.2957 27.8399C11.0114 26.7923 9.41739 24.4643 9.41739 21.7645C9.41739 21.3335 9.46022 20.8986 9.54376 20.4682L9.63136 20.0191L9.15459 20.0197C8.58916 20.0197 8.02867 19.9717 7.48615 19.8799C7.45513 19.8742 7.14228 19.8253 7.02401 19.8015C5.65468 19.5323 4.27812 18.8654 4.26384 18.8594L2.76196 18.1245L6.95562 23.3426C7.51805 26.6562 9.81767 29.3766 12.8681 30.5017C12.7957 30.2302 12.7541 29.9474 12.7541 29.6523C12.7543 28.9833 12.9543 28.36 13.2957 27.8399Z" fill="white"/>
<path d="M29.5639 3.49951C29.1605 3.49951 28.76 3.60788 28.4086 3.81374C27.302 4.46165 26.921 5.89958 27.5599 7.02079C27.9736 7.74512 28.7428 8.19467 29.5701 8.19467C29.9735 8.19467 30.3729 8.08576 30.7255 7.87991C31.8331 7.23254 32.2122 5.79407 31.5741 4.67339C31.1606 3.94925 30.3914 3.49951 29.5639 3.49951Z" fill="white"/>
<path d="M31.8607 8.1665C31.6642 8.36593 31.4421 8.54589 31.1894 8.69319C30.6962 8.98135 30.1368 9.13417 29.5703 9.13417C29.5029 9.13417 29.4356 9.13185 29.3685 9.12774C29.6149 11.6537 28.4209 14.2157 26.113 15.5656C25.7462 15.7798 25.353 15.9603 24.9444 16.1017L24.5165 16.2489L24.7437 16.6457C25.0278 17.141 25.2703 17.6654 25.467 18.202C25.4781 18.232 25.5923 18.5302 25.632 18.6459C26.0864 19.9813 26.2047 21.5223 26.2057 21.5387L26.3289 23.223L28.6938 16.9346C30.1417 15.7168 31.185 14.08 31.6822 12.1966C32.0372 10.8588 32.092 9.48892 31.8607 8.1665Z" fill="white"/>
<path d="M3.58949 3.81374C3.23698 3.60842 2.83758 3.49951 2.43308 3.49951C1.60679 3.49951 0.836021 3.94925 0.423934 4.67357C0.114781 5.21614 0.0315879 5.84887 0.192157 6.45465C0.35255 7.06078 0.735731 7.56675 1.27173 7.88026C1.62424 8.08612 2.02363 8.19502 2.42814 8.19502C3.25443 8.19502 4.02467 7.74529 4.43728 7.02114C5.07657 5.89994 4.69585 4.46165 3.58949 3.81374Z" fill="white"/>
<path d="M22.807 0.49707C21.2064 0.49707 19.6251 0.927344 18.2333 1.74093C15.4053 3.39561 13.6466 6.48662 13.6466 9.80668C13.6466 11.1516 13.9431 12.4822 14.5015 13.7011C13.2728 15.4143 11.2853 16.4566 9.16355 16.4577C9.16303 16.4577 9.16303 16.4577 9.1625 16.4577C8.01525 16.4577 6.88174 16.149 5.88378 15.5654C3.57659 14.2155 2.38192 11.6535 2.62798 9.12753C2.56223 9.13163 2.49508 9.13396 2.42775 9.13396C1.86126 9.13396 1.30077 8.98131 0.80831 8.69351C0.561199 8.54889 0.340174 8.37285 0.142415 8.17468C0.050938 8.70261 0 9.23786 0 9.77722C0 13.0973 1.75763 16.1878 4.58583 17.8428C5.97773 18.6555 7.55892 19.0854 9.16056 19.0854C12.1641 19.0854 14.9737 17.5878 16.6805 15.1326C19.9897 15.4793 22.5798 18.3206 22.5798 21.7645C22.5798 24.4644 20.9863 26.7923 18.702 27.8399C19.0434 28.36 19.2429 28.9833 19.2429 29.6521C19.2429 29.9472 19.2013 30.23 19.1298 30.5016C22.6519 29.2031 25.1759 25.7757 25.1759 21.7643C25.1759 16.9157 21.4916 12.9243 16.811 12.5058C15.4545 9.42908 16.5887 5.73837 19.5313 4.01763C20.5287 3.43418 21.6629 3.12602 22.81 3.12602C24.213 3.12602 25.5568 3.58343 26.6633 4.38703C26.9363 3.82553 27.3705 3.33669 27.944 3.00069C28.1876 2.85857 28.4465 2.75038 28.7142 2.67647C27.0823 1.29477 24.9966 0.49707 22.807 0.49707Z" fill="white"/>
<path d="M12.3384 1.07051C11.3318 0.695935 10.266 0.497046 9.19012 0.497046C7.00066 0.497046 4.91502 1.29475 3.28271 2.67644C3.5508 2.75053 3.81007 2.85855 4.05295 3.00066C4.62702 3.33667 5.06061 3.8255 5.33522 4.387C6.44017 3.58341 7.78412 3.126 9.18695 3.126C10.3342 3.126 11.4682 3.43433 12.4657 4.01761C12.8325 4.23257 13.1846 4.48805 13.511 4.77692L13.8514 5.07811L14.0765 4.68141C14.3721 4.16079 15.2614 2.99156 15.3393 2.89943C16.2545 1.83268 17.5129 0.959277 17.5263 0.949814L18.9038 0L12.3384 1.07051Z" fill="white"/>
</g>
<defs>
<clipPath id="clip0_2_4120">
<rect width="32" height="32" fill="white"/>
</clipPath>
</defs>
</svg>
