<svg width="28" height="28" viewBox="0 0 28 28" fill="none" xmlns="http://www.w3.org/2000/svg">
<g clip-path="url(#clip0_2_4520)">
<path d="M13.9985 23.8911C12.8805 23.8911 11.9712 24.8131 11.9712 25.9456C11.9712 27.078 12.8805 27.9998 13.9985 27.9998C15.1172 27.9998 16.0274 27.078 16.0274 25.9456C16.0274 24.8131 15.1172 23.8911 13.9985 23.8911Z" fill="url(#paint0_linear_2_4520)"/>
<path d="M11.6338 24.3599C9.63505 23.4432 8.24025 21.4062 8.24025 19.0439C8.24025 18.6668 8.27772 18.2862 8.35082 17.9096L8.42747 17.5167L8.0103 17.5172C7.51555 17.5172 7.02512 17.4751 6.55041 17.3948C6.52327 17.3898 6.24952 17.347 6.14604 17.3263C4.94787 17.0907 3.74338 16.5072 3.73089 16.5019L2.41675 15.8589L6.0862 20.4247C6.57833 23.3241 8.59049 25.7045 11.2596 26.689C11.1963 26.4513 11.1599 26.2039 11.1599 25.9457C11.16 25.3603 11.3351 24.8149 11.6338 24.3599Z" fill="url(#paint1_linear_2_4520)"/>
<path d="M25.8686 3.06201C25.5155 3.06201 25.1651 3.15684 24.8576 3.33696C23.8894 3.90388 23.556 5.16207 24.115 6.14313C24.477 6.77692 25.15 7.17028 25.874 7.17028C26.227 7.17028 26.5764 7.07498 26.8849 6.89486C27.854 6.32841 28.1858 5.06975 27.6275 4.08916C27.2657 3.45553 26.5926 3.06201 25.8686 3.06201Z" fill="url(#paint2_linear_2_4520)"/>
<path d="M27.8781 7.14575C27.7062 7.32025 27.5118 7.47772 27.2907 7.6066C26.8592 7.85874 26.3696 7.99246 25.874 7.99246C25.8151 7.99246 25.7561 7.99043 25.6974 7.98684C25.913 10.197 24.8683 12.4388 22.8489 13.62C22.5279 13.8074 22.1839 13.9654 21.8264 14.0891L21.4519 14.2178L21.6507 14.5651C21.8993 14.9984 22.1115 15.4573 22.2836 15.9269C22.2934 15.9531 22.3933 16.214 22.428 16.3152C22.8256 17.4837 22.9291 18.8321 22.93 18.8464L23.0378 20.3202L25.107 14.8179C26.374 13.7523 27.2868 12.3201 27.7219 10.6721C28.0325 9.50154 28.0805 8.30287 27.8781 7.14575Z" fill="url(#paint3_linear_2_4520)"/>
<path d="M3.14079 3.33696C2.83234 3.15731 2.48287 3.06201 2.12893 3.06201C1.40592 3.06201 0.731503 3.45553 0.370927 4.08931C0.100418 4.56406 0.0276242 5.1177 0.168122 5.64776C0.308466 6.17812 0.643749 6.62085 1.11274 6.89517C1.42119 7.07529 1.77066 7.17058 2.12461 7.17058C2.84761 7.17058 3.52157 6.77707 3.88261 6.14344C4.44198 5.16238 4.10886 3.90388 3.14079 3.33696Z" fill="url(#paint4_linear_2_4520)"/>
<path d="M19.9561 0.434814C18.5556 0.434814 17.1719 0.811304 15.9542 1.5232C13.4796 2.97104 11.9408 5.67567 11.9408 8.58072C11.9408 9.75753 12.2002 10.9218 12.6888 11.9883C11.6137 13.4874 9.87466 14.3994 8.01811 14.4004C8.01765 14.4004 8.01765 14.4004 8.01719 14.4004C7.01334 14.4004 6.02152 14.1303 5.14831 13.6196C3.12952 12.4384 2.08418 10.1967 2.29948 7.98647C2.24196 7.99006 2.1832 7.99209 2.12428 7.99209C1.62861 7.99209 1.13817 7.85852 0.707272 7.6067C0.491049 7.48016 0.297652 7.32613 0.124613 7.15272C0.0445708 7.61466 0 8.08301 0 8.55495C0 11.46 1.53792 14.1642 4.0126 15.6123C5.23051 16.3234 6.61405 16.6996 8.01549 16.6996C10.6436 16.6996 13.102 15.3892 14.5955 13.2409C17.491 13.5443 19.7573 16.0304 19.7573 19.0438C19.7573 21.4062 18.363 23.4431 16.3643 24.3598C16.663 24.8149 16.8376 25.3603 16.8376 25.9455C16.8376 26.2037 16.8012 26.4511 16.7386 26.6888C19.8204 25.5526 22.0289 22.5536 22.0289 19.0437C22.0289 14.8011 18.8052 11.3086 14.7096 10.9425C13.5227 8.25032 14.5151 5.02095 17.0899 3.51531C17.9626 3.00478 18.9551 2.73515 19.9588 2.73515C21.1864 2.73515 22.3622 3.13538 23.3304 3.83853C23.5693 3.34721 23.9492 2.91949 24.451 2.62548C24.6641 2.50113 24.8907 2.40646 25.125 2.34179C23.697 1.1328 21.8721 0.434814 19.9561 0.434814Z" fill="url(#paint5_linear_2_4520)"/>
<path d="M10.796 0.936692C9.91527 0.608944 8.98268 0.434915 8.04129 0.434915C6.12552 0.434915 4.30058 1.1329 2.87231 2.34189C3.10689 2.40672 3.33375 2.50123 3.54627 2.62558C4.04858 2.91959 4.42797 3.34731 4.66825 3.83863C5.63509 3.13548 6.81105 2.73525 8.03852 2.73525C9.04236 2.73525 10.0346 3.00504 10.9074 3.51541C11.2283 3.7035 11.5365 3.92705 11.8221 4.17981L12.1199 4.44335L12.3168 4.09623C12.5755 3.6407 13.3537 2.61761 13.4219 2.537C14.2226 1.60359 15.3238 0.839367 15.3355 0.831088L16.5407 0L10.796 0.936692Z" fill="url(#paint6_linear_2_4520)"/>
</g>
<defs>
<linearGradient id="paint0_linear_2_4520" x1="11.9712" y1="23.8911" x2="16.4587" y2="24.4338" gradientUnits="userSpaceOnUse">
<stop stop-color="#FF3A7F"/>
<stop offset="1" stop-color="#FF5F45"/>
</linearGradient>
<linearGradient id="paint1_linear_2_4520" x1="2.41675" y1="15.8589" x2="12.6516" y2="16.9259" gradientUnits="userSpaceOnUse">
<stop stop-color="#FF3A7F"/>
<stop offset="1" stop-color="#FF5F45"/>
</linearGradient>
<linearGradient id="paint2_linear_2_4520" x1="23.8439" y1="3.06201" x2="28.3296" y2="3.60434" gradientUnits="userSpaceOnUse">
<stop stop-color="#FF3A7F"/>
<stop offset="1" stop-color="#FF5F45"/>
</linearGradient>
<linearGradient id="paint3_linear_2_4520" x1="21.4519" y1="7.14575" x2="28.775" y2="7.59162" gradientUnits="userSpaceOnUse">
<stop stop-color="#FF3A7F"/>
<stop offset="1" stop-color="#FF5F45"/>
</linearGradient>
<linearGradient id="paint4_linear_2_4520" x1="0.0981445" y1="3.06201" x2="4.5853" y2="3.60464" gradientUnits="userSpaceOnUse">
<stop stop-color="#FF3A7F"/>
<stop offset="1" stop-color="#FF5F45"/>
</linearGradient>
<linearGradient id="paint5_linear_2_4520" x1="0" y1="0.434814" x2="27.8204" y2="3.69626" gradientUnits="userSpaceOnUse">
<stop stop-color="#FF3A7F"/>
<stop offset="1" stop-color="#FF5F45"/>
</linearGradient>
<linearGradient id="paint6_linear_2_4520" x1="2.87231" y1="0" x2="16.3073" y2="5.06271" gradientUnits="userSpaceOnUse">
<stop stop-color="#FF3A7F"/>
<stop offset="1" stop-color="#FF5F45"/>
</linearGradient>
<clipPath id="clip0_2_4520">
<rect width="28" height="28" fill="white"/>
</clipPath>
</defs>
</svg>
